<?xml version="1.0" standalone="no"?>
<!DOCTYPE svg PUBLIC "-//W3C//DTD SVG 1.1//EN" "http://www.w3.org/Graphics/SVG/1.1/DTD/svg11.dtd" >
<svg>
<metadata>
Created by FontForge 20090622 at Mon Oct 10 13:21:34 2016
 By deploy user
&#194;&#169; 1991 Bigelow &#38; Holmes Inc. Pat. Des. 289,420. All Rights Reserved. &#194;&#169; 1990-1991 Type Solutions, Inc. All Rights Reserved.
</metadata>
<defs>
<font id="LucidaSans" horiz-adv-x="1295" >
  <font-face 
    font-family="Lucida Sans"
    font-weight="400"
    font-stretch="normal"
    units-per-em="2048"
    panose-1="2 11 6 2 3 5 4 2 2 4"
    ascent="1638"
    descent="-410"
    x-height="1086"
    cap-height="1480"
    bbox="-617 -432 2060 1900"
    underline-thickness="100"
    underline-position="-150"
    unicode-range="U+0020-U+F002"
  />
    <missing-glyph />
    <glyph glyph-name="f000" horiz-adv-x="1536" 
d="M256 0v1280h1024v-1280h-1024zM320 64h896v1152h-896v-1152z" />
    <glyph glyph-name="glyph1" horiz-adv-x="0" 
 />
    <glyph glyph-name="glyph2" horiz-adv-x="648" 
 />
    <glyph glyph-name="space" unicode=" " horiz-adv-x="648" 
 />
    <glyph glyph-name="exclam" unicode="!" horiz-adv-x="648" 
d="M225 0v197h197v-197h-197zM250 395l-25 789v296h197v-296l-24 -789h-148z" />
    <glyph glyph-name="quotedbl" unicode="&#x22;" horiz-adv-x="765" 
d="M136 1086l-25 493h197l-24 -493h-148zM481 1086l-25 493h198l-25 -493h-148z" />
    <glyph glyph-name="numbersign" unicode="#" 
d="M203 0l111 444h-299l25 124h305l87 345h-324l25 123h329l112 444h127l-111 -444h263l111 444h128l-111 -444h299l-24 -123h-306l-87 -345h324l-25 -124h-329l-111 -444h-128l111 444h-263l-111 -444h-128zM473 568h263l87 345h-264z" />
    <glyph glyph-name="dollar" unicode="$" 
d="M611 -123v123q-176 0 -395 83v170q226 -105 395 -105v531q-166 102 -228.5 163.5t-93 136.5t-30.5 146q0 88 43 168.5t116.5 129t192.5 57.5v124h98v-124q46 0 139 -16.5t182 -50.5v-161q-96 42 -162 64t-159 29v-527l81 -49q173 -105 219 -180.5t46 -174.5
q0 -148 -90 -263.5t-256 -150.5v-123h-98zM709 160q92 33 132.5 95t40.5 130q0 47 -20 95.5t-153 140.5v-461zM611 883v456q-93 -29 -136 -86t-43 -124q0 -41 16.5 -85t47 -75.5t115.5 -85.5z" />
    <glyph glyph-name="percent" unicode="%" horiz-adv-x="1369" 
d="M24 -37l1166 1554h154l-1165 -1554h-155zM327 740q-148 0 -231.5 102.5t-83.5 267.5q0 166 84 268t231 102q146 0 230 -102t84 -268q0 -165 -83.5 -267.5t-230.5 -102.5zM327 839q77 0 121.5 75t44.5 196q0 122 -45 197t-121 75q-77 0 -122 -75t-45 -197q0 -121 45 -196
t122 -75zM1042 0q-147 0 -230.5 102.5t-83.5 267.5q0 166 83.5 268t230.5 102t231 -102t84 -268q0 -165 -83.5 -267.5t-231.5 -102.5zM1042 99q77 0 122 75t45 196q0 122 -45.5 197t-121.5 75t-121 -75t-45 -197q0 -121 44.5 -196t121.5 -75z" />
    <glyph glyph-name="ampersand" unicode="&#x26;" horiz-adv-x="1428" 
d="M1061 0l-73 88q-164 -125 -383 -125q-146 0 -269.5 58.5t-192.5 172.5t-69 246q0 139 80 267.5t281 196.5q-100 181 -100 301q0 83 47 155.5t129.5 114.5t181.5 42q145 0 238 -87t93 -212q0 -222 -325 -386q149 -264 347 -493q37 54 53.5 99.5t27 120.5t10.5 156l-1 72
h196q0 -328 -196 -566q90 -114 205 -221h-280zM902 202q-139 171 -220.5 293t-179.5 292q-135 -54 -183 -131.5t-48 -166.5q0 -96 50.5 -189t131 -141t184.5 -48q139 0 265 91zM627 957q212 97 212 258q0 66 -41 110t-113 44q-82 0 -117 -50t-35 -105q0 -102 94 -257z" />
    <glyph glyph-name="quotesingle" unicode="'" horiz-adv-x="469" 
d="M160 1036l-49 543h247l-50 -543h-148z" />
    <glyph glyph-name="parenleft" unicode="(" horiz-adv-x="666" 
d="M592 -160v-136q-163 111 -264 265t-153 329t-52 344q0 168 52 343t153 329t264 265v-136q-113 -122 -167 -237.5t-79.5 -260t-25.5 -303.5q0 -160 25.5 -304.5t79.5 -259.5t167 -238z" />
    <glyph glyph-name="parenright" unicode=")" horiz-adv-x="666" 
d="M74 1443v136q163 -111 264 -265t153 -329.5t52 -342.5q0 -168 -52 -343.5t-153 -330t-264 -264.5v136q113 123 167 238t79 260t25 304q0 157 -25 302.5t-79 261t-167 237.5z" />
    <glyph glyph-name="asterisk" unicode="*" horiz-adv-x="987" 
d="M832 1289l45 -141l-303 -66l3 15q0 41 -29 67zM777 838l-120 -87l-157 267q20 2 40.5 16.5t29.5 34.5zM331 751l-120 87l206 231q9 -21 30 -35t40 -16zM110 1148l46 141l284 -125q-29 -25 -29 -67l2 -15zM420 1480h148l-31 -308q-18 11 -43 11t-43 -11z" />
    <glyph glyph-name="plus" unicode="+" 
d="M574 49v469h-469v148h469v469h148v-469h469v-148h-469v-469h-148z" />
    <glyph glyph-name="comma" unicode="," horiz-adv-x="648" 
d="M200 -321v74q32 9 51 34t32 63t13 130v20h-96v247h247v-214q0 -171 -58.5 -256t-188.5 -98z" />
    <glyph glyph-name="hyphen" unicode="-" horiz-adv-x="666" 
d="M111 543v148h444v-148h-444z" />
    <glyph glyph-name="period" unicode="." horiz-adv-x="648" 
d="M200 0v247h247v-247h-247z" />
    <glyph glyph-name="slash" unicode="/" horiz-adv-x="1012" 
d="M12 -296l825 1875h162l-825 -1875h-162z" />
    <glyph glyph-name="zero" unicode="0" 
d="M648 -37q-166 0 -285 106.5t-176 288t-57 382.5q0 200 56.5 381.5t176.5 288.5t285 107q166 0 285.5 -106.5t176 -288t56.5 -382.5q0 -200 -56 -380.5t-175.5 -288.5t-286.5 -108zM648 111q162 0 235.5 173t73.5 456t-73.5 456t-235.5 173t-235 -173t-73 -456t73 -456
t235 -173z" />
    <glyph glyph-name="one" unicode="1" 
d="M536 0v1332h-234v124l432 37v-1493h-198z" />
    <glyph glyph-name="two" unicode="2" 
d="M170 0v173q86 201 348 438l113 101q123 112 170.5 202.5t47.5 188.5q0 125 -76 195.5t-204 70.5q-55 0 -105.5 -10.5t-108 -33.5t-148.5 -75v174q197 93 392 93q213 0 336 -117t123 -292q0 -114 -50.5 -215t-249.5 -271l-76 -65q-83 -70 -167 -170.5t-107 -213.5h643
v-173h-881z" />
    <glyph glyph-name="three" unicode="3" 
d="M208 11v184q211 -84 332 -84q141 0 230.5 82.5t89.5 213.5q0 128 -91.5 220t-345.5 92h-78v133l69 1q237 0 323.5 86.5t86.5 202.5q0 103 -68.5 165t-203.5 62q-146 0 -324 -83v172q127 43 198 51t139 8q235 0 346 -94t111 -249q0 -87 -32 -152.5t-97 -122t-180 -97.5
q145 -34 215.5 -87t106.5 -133t36 -172q0 -174 -119 -310.5t-398 -136.5q-138 0 -346 48z" />
    <glyph glyph-name="four" unicode="4" 
d="M771 0v419h-666v149l666 912h185v-900h198v-161h-198v-419h-185zM298 580h486v658z" />
    <glyph glyph-name="five" unicode="5" 
d="M249 -6v176q147 -59 280 -59q160 0 236.5 94.5t76.5 227.5q0 152 -111.5 243t-347.5 91q-53 0 -109 -7v720h749v-172h-576v-390q312 0 458.5 -142.5t146.5 -351.5q0 -192 -132.5 -326.5t-414.5 -134.5q-114 0 -256 31z" />
    <glyph glyph-name="six" unicode="6" 
d="M352 767q57 74 109 109.5t114.5 54.5t131.5 19q126 0 229.5 -60t157.5 -164.5t54 -233.5q0 -142 -63 -266t-168 -193.5t-260 -69.5q-264 0 -392 214.5t-128 529.5q0 208 62 399t190 301.5t351 110.5q69 0 133 -9t199 -47v-172q-209 80 -344 80q-198 0 -287 -167t-89 -436
zM950 453q0 176 -81.5 265.5t-202.5 89.5q-100 0 -203 -73t-103 -213q0 -143 71.5 -277t240.5 -134q122 0 200 89.5t78 252.5z" />
    <glyph glyph-name="seven" unicode="7" 
d="M308 0q34 201 96.5 331.5t175.5 313.5l404 650h-762v185h950v-185q-192 -282 -316 -507t-210 -423.5t-111 -364.5h-227z" />
    <glyph glyph-name="eight" unicode="8" 
d="M471 806q-141 98 -179 173t-38 161q0 163 121 270.5t323 107.5q183 0 296.5 -89.5t113.5 -230.5q0 -98 -58 -193.5t-218 -198.5q186 -91 260.5 -191.5t74.5 -231.5q0 -172 -134 -296t-366 -124q-239 0 -364.5 118.5t-125.5 282.5q0 117 69.5 233.5t224.5 208.5zM722 868
q98 65 152.5 143t54.5 160q0 86 -68.5 142t-182.5 56q-117 0 -181.5 -57.5t-64.5 -134.5q0 -73 52.5 -138.5t237.5 -170.5zM578 726q-141 -109 -172.5 -179.5t-31.5 -150.5q0 -130 85 -207.5t213 -77.5q120 0 206 64t86 177q0 81 -45.5 140t-200.5 151z" />
    <glyph glyph-name="nine" unicode="9" 
d="M233 9v167q188 -65 320 -65q122 0 208 64.5t134.5 210t48.5 317.5q-66 -81 -114 -115t-105.5 -52t-121.5 -18q-123 0 -227.5 65.5t-162 171.5t-57.5 236q0 137 63.5 263.5t169 194.5t254.5 68q265 0 392 -212.5t127 -510.5q0 -227 -75.5 -427.5t-210.5 -302t-342 -101.5
q-116 0 -301 46zM353 1025q0 -166 76.5 -265.5t209.5 -99.5q109 0 205.5 79t96.5 211q0 114 -42.5 221.5t-109 153t-158.5 45.5q-131 0 -204.5 -93t-73.5 -252z" />
    <glyph glyph-name="colon" unicode=":" horiz-adv-x="648" 
d="M225 0v197h197v-197h-197zM225 888v198h197v-198h-197z" />
    <glyph glyph-name="semicolon" unicode=";" horiz-adv-x="648" 
d="M225 -321v74q38 20 54.5 64.5t16.5 159.5v23h-71v197h197v-166q0 -128 -22 -186.5t-70 -105t-105 -60.5zM225 888v198h197v-198h-197z" />
    <glyph glyph-name="less" unicode="&#x3c;" 
d="M1191 49l-1086 543l1086 543v-173l-755 -370l755 -370v-173z" />
    <glyph glyph-name="equal" unicode="=" 
d="M105 345v148h1086v-148h-1086zM105 691v148h1086v-148h-1086z" />
    <glyph glyph-name="greater" unicode="&#x3e;" 
d="M105 1135l1086 -543l-1086 -543v173l755 370l-755 370v173z" />
    <glyph glyph-name="question" unicode="?" horiz-adv-x="864" 
d="M250 0v197h197v-197h-197zM250 395v54q0 111 28.5 183.5t118.5 175.5l63 73q99 113 128 173.5t29 121.5q0 86 -68 139.5t-189 53.5q-151 0 -323 -74v167q185 56 347 56q201 0 322 -91.5t121 -247.5q0 -53 -15 -100.5t-41.5 -87.5t-110.5 -120l-62 -58
q-92 -88 -121.5 -145t-29.5 -163v-110h-197z" />
    <glyph glyph-name="at" unicode="@" horiz-adv-x="1758" 
d="M1093 44q-180 -81 -353 -81q-186 0 -334.5 77.5t-230.5 227t-82 308.5q0 229 131 459t351 356t453 126q186 0 335.5 -82t235 -228t85.5 -317q0 -156 -71.5 -299.5t-189 -219t-256.5 -75.5q-89 0 -127.5 34.5t-38.5 80.5q0 42 20 105l40 126h-12q-93 -179 -195 -262.5
t-192 -83.5t-141.5 63.5t-51.5 160.5q0 156 84 325.5t196 251t245 81.5q31 0 79 -3q50 -3 78 -3h137l-126 -636q-6 -32 -6 -62q0 -33 19 -50t57 -17q87 0 170 72t127 172t44 222q0 236 -166 385t-394 149q-203 0 -393.5 -114t-303 -311t-112.5 -396q0 -133 68.5 -257.5
t192 -189.5t291.5 -65q58 0 125 8.5t176 63.5zM1073 833l39 195q-92 33 -160 33q-166 0 -247.5 -168t-81.5 -332q0 -64 22.5 -103t60.5 -39q55 0 155 107t212 307z" />
    <glyph glyph-name="A" unicode="A" horiz-adv-x="1413" 
d="M17 0l587 1480h208l578 -1480h-227l-161 410h-627l-163 -410h-195zM436 566h505l-252 638z" />
    <glyph glyph-name="B" unicode="B" horiz-adv-x="1178" 
d="M191 0v1480h384q251 0 355 -96.5t104 -229.5q0 -108 -70 -214.5t-234 -168.5q143 -44 214.5 -100.5t110 -136t38.5 -164.5q0 -103 -53 -192t-140 -133.5t-273 -44.5h-436zM399 157h43q222 0 289 24.5t103.5 81t36.5 127.5q0 128 -117.5 217.5t-295.5 89.5h-59v-540z
M399 830h67q183 0 268 78.5t85 198.5q0 105 -75.5 160.5t-262.5 55.5h-82v-493z" />
    <glyph glyph-name="C" unicode="C" horiz-adv-x="1417" 
d="M1303 76q-91 -47 -162.5 -69.5t-148.5 -33t-167 -10.5q-374 0 -547.5 221t-173.5 555q0 341 180 559.5t552 218.5q198 0 465 -65v-197q-224 77 -308.5 91t-160.5 14q-266 0 -385.5 -180.5t-119.5 -442.5q0 -273 137.5 -441.5t389.5 -168.5q70 0 139.5 12.5t138.5 37
t171 79.5v-180z" />
    <glyph glyph-name="D" unicode="D" horiz-adv-x="1534" 
d="M191 0v1480h492q285 0 432 -82.5t230.5 -241t83.5 -381.5q0 -211 -76.5 -387t-232.5 -282t-434 -106h-495zM401 157h269q210 0 314.5 66.5t163.5 210.5t59 321q0 156 -51 284.5t-165 206t-417 77.5h-173v-1166z" />
    <glyph glyph-name="E" unicode="E" horiz-adv-x="1110" 
d="M191 0v1480h827v-157h-617v-475h517v-155h-517v-536h660v-157h-870z" />
    <glyph glyph-name="F" unicode="F" horiz-adv-x="1098" 
d="M191 0v1480h827v-157h-617v-496h518v-155h-518v-672h-210z" />
    <glyph glyph-name="G" unicode="G" horiz-adv-x="1480" 
d="M1303 40q-194 -56 -283.5 -66.5t-185.5 -10.5q-266 0 -418.5 96t-232 277t-79.5 404q0 341 180.5 559t549.5 218q223 0 467 -67v-194q-225 77 -309.5 90.5t-159.5 13.5q-267 0 -386 -181.5t-119 -439.5q0 -160 50.5 -298.5t169.5 -229.5t320 -91q51 0 96 5.5t131 31.5
v482h209v-599z" />
    <glyph glyph-name="H" unicode="H" horiz-adv-x="1505" 
d="M191 0v1480h210v-624h704v624h210v-1480h-210v699h-704v-699h-210z" />
    <glyph glyph-name="I" unicode="I" horiz-adv-x="590" 
d="M190 0v1480h210v-1480h-210z" />
    <glyph glyph-name="J" unicode="J" horiz-adv-x="637" 
d="M-184 -275v186q120 -39 214 -39q64 0 110 23.5t74.5 78t28.5 206.5v1300h210v-1293q0 -255 -119.5 -369t-337.5 -114q-70 0 -180 21z" />
    <glyph glyph-name="K" unicode="K" horiz-adv-x="1337" 
d="M191 0v1480h197v-728l599 728h211l-580 -706l683 -774h-266l-647 750v-750h-197z" />
    <glyph glyph-name="L" unicode="L" horiz-adv-x="1092" 
d="M191 0v1480h210v-1323h666v-157h-876z" />
    <glyph glyph-name="M" unicode="M" horiz-adv-x="1764" 
d="M191 0v1480h291l410 -1145l422 1145h260v-1480h-196v1204l-408 -1105h-203l-396 1108v-1207h-180z" />
    <glyph glyph-name="N" unicode="N" horiz-adv-x="1513" 
d="M191 0v1480h206l745 -1143v1143h180v-1480h-205l-746 1143v-1143h-180z" />
    <glyph glyph-name="O" unicode="O" horiz-adv-x="1591" 
d="M796 -37q-210 0 -365.5 94t-241 274.5t-85.5 408.5q0 220 81.5 400.5t240.5 278.5t370 98t370 -98t240.5 -278.5t81.5 -400.5q0 -219 -80.5 -398.5t-238 -279t-373.5 -99.5zM796 120q224 0 346.5 167t122.5 455q0 287 -123.5 452.5t-345.5 165.5t-345.5 -165.5
t-123.5 -452.5q0 -288 122.5 -455t346.5 -167z" />
    <glyph glyph-name="P" unicode="P" horiz-adv-x="1132" 
d="M191 0v1480h403q215 0 308.5 -42t143.5 -129t50 -217q0 -152 -66.5 -266t-213.5 -176t-324 -62h-93v-588h-208zM399 747h85q209 0 300 95t91 235q0 76 -29 128.5t-93 85t-225 32.5h-129v-576z" />
    <glyph glyph-name="Q" unicode="Q" horiz-adv-x="1591" 
d="M1505 -296q-349 113 -585 269q-94 -10 -145 -10q-186 0 -347 97.5t-242.5 278.5t-81.5 401t81 400.5t240.5 278.5t370.5 98q212 0 371.5 -98.5t240 -279t80.5 -402.5q0 -228 -87.5 -414.5t-291.5 -291.5q255 -112 529 -160zM796 120q222 0 345.5 165.5t123.5 454.5
t-123.5 454.5t-345.5 165.5t-345.5 -165.5t-123.5 -452.5q0 -288 122.5 -455t346.5 -167z" />
    <glyph glyph-name="R" unicode="R" 
d="M191 0v1480h448q249 0 344 -111.5t95 -255.5q0 -84 -33.5 -166t-95.5 -146t-169 -108l494 -693h-258l-421 626h-196v-626h-208zM399 783h68q233 0 314.5 97t81.5 213q0 69 -30.5 120.5t-95 80.5t-206.5 29h-132v-540z" />
    <glyph glyph-name="S" unicode="S" horiz-adv-x="1103" 
d="M100 28v208q178 -82 260 -99t152 -17q127 0 200.5 69.5t73.5 166.5q0 73 -38 135q-39 61 -194 149l-102 59q-204 116 -274 212t-70 213q0 105 55.5 197t149 144t235.5 52q171 0 361 -57v-192q-165 65 -226.5 78.5t-122.5 13.5q-128 0 -189.5 -67t-61.5 -137
q0 -48 29 -97.5t78 -85t135 -84.5l106 -60q206 -117 275 -214q69 -98 69 -225q0 -173 -131.5 -300t-387.5 -127q-79 0 -153 10.5t-229 54.5z" />
    <glyph glyph-name="T" unicode="T" 
d="M543 0v1323h-525v157h1260v-157h-525v-1323h-210z" />
    <glyph glyph-name="U" unicode="U" horiz-adv-x="1419" 
d="M179 1480h210v-934q0 -244 91 -335t254 -91q103 0 174 35.5t110 115.5t39 268v941h184v-938q0 -241 -59.5 -347.5t-168 -169t-287.5 -62.5q-191 0 -309 65t-178 178t-60 342v932z" />
    <glyph glyph-name="V" unicode="V" horiz-adv-x="1339" 
d="M595 0l-559 1480h210l458 -1212l442 1212h184l-537 -1480h-198z" />
    <glyph glyph-name="W" unicode="W" horiz-adv-x="1752" 
d="M383 0l-381 1480h202l303 -1169l279 1169h202l264 -1153l326 1153h171l-415 -1480h-209l-261 1141l-273 -1141h-208z" />
    <glyph glyph-name="X" unicode="X" horiz-adv-x="1282" 
d="M16 0l491 743l-467 737h248l356 -558l374 558h198l-473 -715l485 -765h-248l-376 587l-389 -587h-199z" />
    <glyph glyph-name="Y" unicode="Y" horiz-adv-x="1276" 
d="M511 0v618l-494 862h240l384 -668l414 668h195l-529 -858v-622h-210z" />
    <glyph glyph-name="Z" unicode="Z" horiz-adv-x="1238" 
d="M95 0v168l795 1155h-746v157h998v-157l-795 -1155h795v-168h-1047z" />
    <glyph glyph-name="bracketleft" unicode="[" horiz-adv-x="666" 
d="M197 -296v1875h395v-148h-222v-1579h222v-148h-395z" />
    <glyph glyph-name="backslash" unicode="\" horiz-adv-x="1012" 
d="M837 -296l-825 1875h162l825 -1875h-162z" />
    <glyph glyph-name="bracketright" unicode="]" horiz-adv-x="666" 
d="M469 1579v-1875h-395v148h222v1579h-222v148h395z" />
    <glyph glyph-name="asciicircum" unicode="^" 
d="M648 1149l-377 -754h-166l543 1085l543 -1085h-166z" />
    <glyph glyph-name="underscore" unicode="_" horiz-adv-x="1024" 
d="M86 -148v148h851v-148h-851z" />
    <glyph glyph-name="grave" unicode="`" horiz-adv-x="1258" 
d="M629 1283l-271 296h222l222 -296h-173z" />
    <glyph glyph-name="a" unicode="a" horiz-adv-x="1131" 
d="M757 138q-88 -81 -173.5 -122t-167.5 -41q-115 0 -214 76t-99 222q0 160 138 264.5t441 104.5h46v131q0 78 -21 113.5t-65.5 55.5t-110.5 20q-153 0 -334 -96v163q199 81 375 81q96 0 176.5 -30.5t128.5 -96t48 -210.5v-492q0 -82 13 -110.5t36.5 -43.5t54.5 -15
q13 0 38 4l14 -109q-67 -32 -148 -32q-54 0 -104 35t-72 128zM728 245v281l-63 2q-155 0 -260 -60t-105 -163q0 -71 51.5 -120t120.5 -49q62 0 126 27.5t130 81.5z" />
    <glyph glyph-name="b" unicode="b" horiz-adv-x="1289" 
d="M197 -12v1591h197v-697q61 114 151.5 171t211.5 57q201 0 311 -148t110 -386q0 -257 -124.5 -429t-339.5 -172q-63 0 -120 15t-101.5 43t-98.5 90l-24 -135h-173zM394 259q101 -90 161 -113t129 -23q145 0 214.5 122t69.5 311q0 176 -61.5 279t-190.5 103
q-82 0 -162.5 -44.5t-159.5 -134.5v-500z" />
    <glyph glyph-name="c" unicode="c" horiz-adv-x="1049" 
d="M951 33q-191 -58 -330 -58q-145 0 -266 78.5t-182.5 206.5t-61.5 289q0 240 133 400.5t411 160.5q128 0 284 -35v-165q-167 49 -272 49q-166 0 -250 -123.5t-84 -292.5q0 -183 94.5 -296t245.5 -113q135 0 278 69v-170z" />
    <glyph glyph-name="d" unicode="d" horiz-adv-x="1289" 
d="M894 0v204q-60 -114 -150.5 -171.5t-211.5 -57.5q-200 0 -310.5 147.5t-110.5 386.5q0 258 124 429.5t339 171.5q63 0 120 -15t101.5 -42.5t98.5 -90.5v617h198v-1579h-198zM894 827q-102 90 -161.5 112.5t-128.5 22.5q-144 0 -213.5 -121t-69.5 -312q0 -177 61.5 -279
t190.5 -102q82 0 162.5 45t158.5 134v500z" />
    <glyph glyph-name="e" unicode="e" horiz-adv-x="1141" 
d="M993 35q-198 -60 -339 -60q-253 0 -398 170.5t-145 402.5q0 153 64 291t167.5 205t243.5 67q188 0 300 -135t112 -404l-1 -60h-685q16 -144 62 -222t122.5 -121.5t194.5 -43.5q60 0 119.5 10.5t182.5 55.5v-156zM321 660h479q0 163 -63.5 233t-162.5 70
q-113 0 -176.5 -75.5t-76.5 -227.5z" />
    <glyph glyph-name="f" unicode="f" horiz-adv-x="753" 
d="M234 0v938h-154v148h154v130q0 134 34.5 210.5t113 127t205.5 50.5q100 0 226 -33v-156q-133 41 -213 41q-46 0 -84 -14.5t-61 -51.5t-23 -153v-151h271v-148h-271v-938h-198z" />
    <glyph glyph-name="g" unicode="g" horiz-adv-x="1277" 
d="M201 -361l23 171q171 -81 338 -81q187 0 259.5 95.5t72.5 257.5v171q-43 -90 -134 -159t-222 -69q-223 0 -325 160.5t-102 364.5q0 155 60 289.5t166.5 202.5t243.5 68q61 0 113.5 -14t98 -42t101.5 -92v124h198v-790q0 -345 -57.5 -472t-180 -185t-291.5 -58
q-55 0 -118.5 6t-113 15.5t-130.5 36.5zM894 376v451q-65 68 -135.5 101.5t-147.5 33.5q-131 0 -210.5 -105.5t-79.5 -305.5q0 -157 59 -255.5t192 -98.5q86 0 166.5 45t155.5 134z" />
    <glyph glyph-name="h" unicode="h" horiz-adv-x="1271" 
d="M197 0v1579h197v-697q75 109 174.5 168.5t206.5 59.5q138 0 224 -87.5t86 -242.5v-780h-197v716q0 113 -20 149t-56 55.5t-77 19.5q-73 0 -157.5 -45t-183.5 -192v-703h-197z" />
    <glyph glyph-name="i" unicode="i" horiz-adv-x="592" 
d="M197 0v1086h197v-1086h-197zM197 1283v197h197v-197h-197z" />
    <glyph glyph-name="j" unicode="j" horiz-adv-x="623" 
d="M-154 -369v156q138 -58 210 -58q49 0 89.5 18.5t61.5 59t21 193.5v1086h198v-1086q0 -165 -41 -245.5t-123.5 -127t-189.5 -46.5q-105 0 -226 50zM228 1283v197h198v-197h-198z" />
    <glyph glyph-name="k" unicode="k" horiz-adv-x="1197" 
d="M197 0v1579h197v-1020l460 527h212l-439 -507l530 -579h-252l-511 557v-557h-197z" />
    <glyph glyph-name="l" unicode="l" horiz-adv-x="592" 
d="M197 0v1579h197v-1579h-197z" />
    <glyph glyph-name="m" unicode="m" horiz-adv-x="1912" 
d="M197 0v1086h197v-204q60 95 153.5 161.5t216.5 66.5q71 0 124 -23t96 -65t77 -140q60 98 152.5 163.5t211.5 65.5q116 0 209 -72t93 -249v-790h-198v759q0 108 -45.5 147t-101.5 39q-70 0 -145.5 -43.5t-175.5 -173.5v-728h-198v759q0 109 -46 148t-104 39
q-71 0 -143.5 -43t-175.5 -175v-728h-197z" />
    <glyph glyph-name="n" unicode="n" horiz-adv-x="1271" 
d="M197 0v1086h197v-204q75 109 174.5 168.5t206.5 59.5q138 0 224 -87.5t86 -242.5v-780h-197v716q0 113 -20 149t-56 55.5t-77 19.5q-73 0 -157.5 -45t-183.5 -192v-703h-197z" />
    <glyph glyph-name="o" unicode="o" horiz-adv-x="1258" 
d="M629 -25q-155 0 -269.5 63.5t-181.5 200t-67 304.5q0 158 61 293.5t177.5 204.5t279.5 69q155 0 270 -63t181.5 -200t66.5 -304q0 -160 -62 -295.5t-177.5 -204t-278.5 -68.5zM629 123q147 0 228 109.5t81 310.5q0 202 -81.5 310.5t-227.5 108.5t-227 -108.5t-81 -310.5
q0 -201 81 -310.5t227 -109.5z" />
    <glyph glyph-name="p" unicode="p" horiz-adv-x="1289" 
d="M197 -395v1481h197v-204q61 114 151.5 171t211.5 57q201 0 311 -148t110 -386q0 -155 -51 -295t-158.5 -223t-243.5 -83q-54 0 -142.5 16t-188.5 132v-518h-197zM394 259q101 -90 161 -113t129 -23q145 0 214.5 122t69.5 311q0 176 -61.5 279t-190.5 103
q-82 0 -162.5 -44.5t-159.5 -134.5v-500z" />
    <glyph glyph-name="q" unicode="q" horiz-adv-x="1289" 
d="M894 -395v599q-60 -114 -150.5 -171.5t-211.5 -57.5q-200 0 -310.5 147.5t-110.5 386.5q0 258 124 429.5t339 171.5q63 0 120 -15t101.5 -42.5t98.5 -90.5v124h198v-1481h-198zM894 827q-102 90 -161.5 112.5t-128.5 22.5q-144 0 -213.5 -121t-69.5 -312
q0 -177 61.5 -279t190.5 -102q82 0 162.5 45t158.5 134v500z" />
    <glyph glyph-name="r" unicode="r" horiz-adv-x="838" 
d="M197 0v1086h197v-204q56 109 145.5 168.5t194.5 59.5q30 0 63 -5v-184q-50 17 -90 17q-93 0 -171.5 -55.5t-141.5 -166.5v-716h-197z" />
    <glyph glyph-name="s" unicode="s" horiz-adv-x="1044" 
d="M157 38v181q193 -96 336 -96q84 0 140.5 46t56.5 115q0 43 -28 84t-129 83l-115 49q-133 55 -194 128q-61 72 -61 177q0 131 95 218t281 87q91 0 225 -25l41 -8v-164q-165 49 -263 49q-95 0 -142 -41t-47 -97q0 -44 32 -79q31 -36 112 -71l95 -40q191 -81 243 -160
t52 -172q0 -89 -48.5 -165t-143 -119t-210.5 -43q-135 0 -328 63z" />
    <glyph glyph-name="t" unicode="t" horiz-adv-x="766" 
d="M681 0q-91 -25 -158 -25q-146 0 -232 84.5t-86 240.5v638h-136v148h136v197l197 19v-216h284v-148h-284v-602q0 -114 44 -163.5t140 -49.5q39 0 95 13v-136z" />
    <glyph glyph-name="u" unicode="u" horiz-adv-x="1271" 
d="M876 0v204q-76 -110 -175 -169.5t-206 -59.5q-137 0 -223.5 87.5t-86.5 243.5v780h197v-716q0 -113 20 -149t56 -56t78 -20q72 0 156.5 45t183.5 192v704h197v-1086h-197z" />
    <glyph glyph-name="v" unicode="v" horiz-adv-x="1060" 
d="M422 0l-404 1086h197l316 -845l333 845h184l-429 -1086h-197z" />
    <glyph glyph-name="w" unicode="w" horiz-adv-x="1578" 
d="M323 0l-311 1086h193l238 -841l257 841h197l225 -841l273 841h169l-354 -1086h-198l-230 841l-260 -841h-199z" />
    <glyph glyph-name="x" unicode="x" horiz-adv-x="1256" 
d="M88 0l413 561l-401 525h234l317 -418l287 418h192l-376 -551l409 -535h-234l-327 430l-316 -430h-198z" />
    <glyph glyph-name="y" unicode="y" horiz-adv-x="1070" 
d="M260 -395l176 395l-420 1086h213l311 -818l332 818h186l-593 -1481h-205z" />
    <glyph glyph-name="z" unicode="z" horiz-adv-x="1174" 
d="M123 0v148l672 790h-641v148h884v-148l-672 -790h685v-148h-928z" />
    <glyph glyph-name="braceleft" unicode="{" horiz-adv-x="666" 
d="M25 716h49q153 0 153 161q0 68 -16 140l-19 87q-19 85 -19 168q0 78 42.5 148.5t113.5 110.5t202 48v-148h-28q-53 0 -105.5 -31t-52.5 -93q0 -23 13 -95l17 -102q11 -65 11 -157q0 -105 -35 -176t-112 -135q77 -65 112 -135.5t35 -178.5q0 -90 -11 -155l-17 -102
q-13 -72 -13 -96q0 -60 51.5 -91.5t106.5 -31.5h28v-148q-131 8 -202 48.5t-113.5 110.5t-42.5 149q0 82 19 167l19 87q16 72 16 142q0 160 -153 160h-49v148z" />
    <glyph glyph-name="bar" unicode="|" horiz-adv-x="543" 
d="M197 -296v1875h148v-1875h-148z" />
    <glyph glyph-name="braceright" unicode="}" horiz-adv-x="666" 
d="M642 568h-50q-152 0 -152 -162q0 -68 16 -140l19 -87q19 -85 19 -168q0 -78 -42.5 -148t-113.5 -110.5t-202 -48.5v148h28q55 0 106.5 31.5t51.5 91.5q0 26 -13 96l-17 102q-12 64 -12 158q0 103 34.5 173.5t112.5 137.5q-77 65 -112 135.5t-35 176.5q0 92 12 156l17 102
q13 70 13 97q0 59 -52 90.5t-106 31.5h-28v148q131 -8 202 -48t113.5 -110.5t42.5 -149.5q0 -82 -19 -167l-19 -87q-16 -72 -16 -142q0 -159 152 -159h50v-148z" />
    <glyph glyph-name="asciitilde" unicode="~" 
d="M105 444q0 143 78 236t198 93q52 0 101 -18.5t114 -52.5l107 -56l128 -69q49 -22 91 -22q47 0 84 45.5t37 132.5v7h148q-12 -185 -88 -259t-178 -74q-55 0 -100 14.5t-145 65.5l-112 58l-119 62q-40 18 -71 18q-44 0 -84.5 -42t-40.5 -139h-148z" />
    <glyph glyph-name="Adieresis" unicode="&#xc4;" horiz-adv-x="1413" 
d="M17 0l587 1480h208l578 -1480h-227l-161 410h-627l-163 -410h-195zM436 566h505l-252 638zM419 1604v173h173v-173h-173zM814 1604v173h173v-173h-173z" />
    <glyph glyph-name="Aring" unicode="&#xc5;" horiz-adv-x="1413" 
d="M436 566h505l-252 638zM17 0l587 1480q-28 26 -42.5 56.5t-14.5 66.5q0 66 48 113t113 47t112.5 -47t47.5 -113q0 -35 -14 -66t-42 -57l578 -1480h-227l-161 410h-627l-163 -410h-195zM708 1516q36 0 61 25.5t25 61.5q0 35 -25 60.5t-61 25.5t-61.5 -25.5t-25.5 -60.5
t25.5 -61t61.5 -26z" />
    <glyph glyph-name="Ccedilla" unicode="&#xc7;" horiz-adv-x="1417" 
d="M1303 76q-143 -76 -257.5 -94t-195.5 -18l-41 -68q125 -29 154.5 -71t29.5 -76q0 -36 -26 -72t-86 -54t-106 -18q-62 0 -159 34v79q53 -19 121 -19q51 0 80.5 19.5t29.5 44.5q0 32 -44 60t-125 39l71 105q-234 19 -362.5 113.5t-205.5 254.5t-77 388q0 363 182 578.5
t550 215.5q198 0 465 -65v-197q-224 77 -308.5 91t-160.5 14q-266 0 -385.5 -180.5t-119.5 -442.5q0 -273 137.5 -441.5t389.5 -168.5q70 0 139.5 12.5t138.5 37t171 79.5v-180z" />
    <glyph glyph-name="Eacute" unicode="&#xc9;" horiz-adv-x="1110" 
d="M191 0v1480h827v-157h-617v-475h517v-155h-517v-536h660v-157h-870zM453 1604l222 296h222l-271 -296h-173z" />
    <glyph glyph-name="Ntilde" unicode="&#xd1;" horiz-adv-x="1513" 
d="M191 0v1480h206l745 -1143v1143h180v-1480h-205l-746 1143v-1143h-180zM448 1604q6 119 55.5 176.5t127.5 57.5q67 0 131 -26l47 -19l69 -31q23 -10 40 -10q21 0 45.5 16t27.5 70h123q0 -83 -24 -130.5t-61.5 -75.5t-98.5 -28q-76 0 -136 28l-60 28q-35 16 -52 23t-38 7
q-64 0 -73 -86h-123z" />
    <glyph glyph-name="Odieresis" unicode="&#xd6;" horiz-adv-x="1591" 
d="M796 -37q-210 0 -365.5 94t-241 274.5t-85.5 408.5q0 220 81.5 400.5t240.5 278.5t370 98t370 -98t240.5 -278.5t81.5 -400.5q0 -219 -80.5 -398.5t-238 -279t-373.5 -99.5zM796 120q224 0 346.5 167t122.5 455q0 287 -123.5 452.5t-345.5 165.5t-345.5 -165.5
t-123.5 -452.5q0 -288 122.5 -455t346.5 -167zM512 1604v173h173v-173h-173zM907 1604v173h173v-173h-173z" />
    <glyph glyph-name="Udieresis" unicode="&#xdc;" horiz-adv-x="1419" 
d="M179 1480h210v-934q0 -244 91 -335t254 -91q103 0 174 35.5t110 115.5t39 268v941h184v-938q0 -241 -59.5 -347.5t-168 -169t-287.5 -62.5q-191 0 -309 65t-178 178t-60 342v932zM425 1604v173h173v-173h-173zM820 1604v173h173v-173h-173z" />
    <glyph glyph-name="aacute" unicode="&#xe1;" horiz-adv-x="1131" 
d="M757 138q-88 -81 -173.5 -122t-167.5 -41q-115 0 -214 76t-99 222q0 160 138 264.5t441 104.5h46v131q0 78 -21 113.5t-65.5 55.5t-110.5 20q-153 0 -334 -96v163q199 81 375 81q96 0 176.5 -30.5t128.5 -96t48 -210.5v-492q0 -82 13 -110.5t36.5 -43.5t54.5 -15
q13 0 38 4l14 -109q-67 -32 -148 -32q-54 0 -104 35t-72 128zM728 245v281l-63 2q-155 0 -260 -60t-105 -163q0 -71 51.5 -120t120.5 -49q62 0 126 27.5t130 81.5zM419 1283l222 296h222l-271 -296h-173z" />
    <glyph glyph-name="agrave" unicode="&#xe0;" horiz-adv-x="1131" 
d="M757 138q-88 -81 -173.5 -122t-167.5 -41q-115 0 -214 76t-99 222q0 160 138 264.5t441 104.5h46v131q0 78 -21 113.5t-65.5 55.5t-110.5 20q-153 0 -334 -96v163q199 81 375 81q96 0 176.5 -30.5t128.5 -96t48 -210.5v-492q0 -82 13 -110.5t36.5 -43.5t54.5 -15
q13 0 38 4l14 -109q-67 -32 -148 -32q-54 0 -104 35t-72 128zM728 245v281l-63 2q-155 0 -260 -60t-105 -163q0 -71 51.5 -120t120.5 -49q62 0 126 27.5t130 81.5zM592 1283l-271 296h222l222 -296h-173z" />
    <glyph glyph-name="acircumflex" unicode="&#xe2;" horiz-adv-x="1131" 
d="M757 138q-88 -81 -173.5 -122t-167.5 -41q-115 0 -214 76t-99 222q0 160 138 264.5t441 104.5h46v131q0 78 -21 113.5t-65.5 55.5t-110.5 20q-153 0 -334 -96v163q199 81 375 81q96 0 176.5 -30.5t128.5 -96t48 -210.5v-492q0 -82 13 -110.5t36.5 -43.5t54.5 -15
q13 0 38 4l14 -109q-67 -32 -148 -32q-54 0 -104 35t-72 128zM728 245v281l-63 2q-155 0 -260 -60t-105 -163q0 -71 51.5 -120t120.5 -49q62 0 126 27.5t130 81.5zM666 1579l222 -296h-173l-160 197l-160 -197h-173l222 296h222z" />
    <glyph glyph-name="adieresis" unicode="&#xe4;" horiz-adv-x="1131" 
d="M757 138q-88 -81 -173.5 -122t-167.5 -41q-115 0 -214 76t-99 222q0 160 138 264.5t441 104.5h46v131q0 78 -21 113.5t-65.5 55.5t-110.5 20q-153 0 -334 -96v163q199 81 375 81q96 0 176.5 -30.5t128.5 -96t48 -210.5v-492q0 -82 13 -110.5t36.5 -43.5t54.5 -15
q13 0 38 4l14 -109q-67 -32 -148 -32q-54 0 -104 35t-72 128zM728 245v281l-63 2q-155 0 -260 -60t-105 -163q0 -71 51.5 -120t120.5 -49q62 0 126 27.5t130 81.5zM284 1283v173h173v-173h-173zM679 1283v173h173v-173h-173z" />
    <glyph glyph-name="atilde" unicode="&#xe3;" horiz-adv-x="1131" 
d="M757 138q-88 -81 -173.5 -122t-167.5 -41q-115 0 -214 76t-99 222q0 160 138 264.5t441 104.5h46v131q0 78 -21 113.5t-65.5 55.5t-110.5 20q-153 0 -334 -96v163q199 81 375 81q96 0 176.5 -30.5t128.5 -96t48 -210.5v-492q0 -82 13 -110.5t36.5 -43.5t54.5 -15
q13 0 38 4l14 -109q-67 -32 -148 -32q-54 0 -104 35t-72 128zM728 245v281l-63 2q-155 0 -260 -60t-105 -163q0 -71 51.5 -120t120.5 -49q62 0 126 27.5t130 81.5zM235 1283q6 119 55.5 176.5t127.5 57.5q67 0 131 -26l47 -19l69 -31q23 -10 40 -10q21 0 45.5 16t27.5 70
h123q0 -83 -24 -130.5t-61.5 -75.5t-98.5 -28q-76 0 -136 28l-60 28q-35 16 -52 23t-38 7q-64 0 -73 -86h-123z" />
    <glyph glyph-name="aring" unicode="&#xe5;" horiz-adv-x="1131" 
d="M757 138q-88 -81 -173.5 -122t-167.5 -41q-115 0 -214 76t-99 222q0 160 138 264.5t441 104.5h46v131q0 78 -21 113.5t-65.5 55.5t-110.5 20q-153 0 -334 -96v163q199 81 375 81q96 0 176.5 -30.5t128.5 -96t48 -210.5v-492q0 -82 13 -110.5t36.5 -43.5t54.5 -15
q13 0 38 4l14 -109q-67 -32 -148 -32q-54 0 -104 35t-72 128zM728 245v281l-63 2q-155 0 -260 -60t-105 -163q0 -71 51.5 -120t120.5 -49q62 0 126 27.5t130 81.5zM568 1283q-66 0 -113 47t-47 113q0 67 47.5 114t112.5 47q66 0 113.5 -47t47.5 -114q0 -66 -47.5 -113
t-113.5 -47zM568 1357q36 0 61 25.5t25 60.5q0 36 -25 61.5t-61 25.5t-61 -25.5t-25 -61.5q0 -35 25 -60.5t61 -25.5z" />
    <glyph glyph-name="ccedilla" unicode="&#xe7;" horiz-adv-x="1049" 
d="M951 33q-85 -25 -146 -39.5t-141 -18.5l-51 -83q157 -41 157 -145q0 -59 -53 -98t-136 -39q-62 0 -122 17v77l10 -1l22 -4q14 -3 34 -3q48 0 74.5 20.5t26.5 52.5q0 67 -123 90l72 118q-140 15 -247.5 94.5t-162 199.5t-54.5 274q0 245 133 405t416 160q58 0 104.5 -5.5
t174.5 -29.5v-165q-167 49 -272 49q-166 0 -250 -123.5t-84 -292.5q0 -182 94.5 -295.5t245.5 -113.5q134 0 278 69v-170z" />
    <glyph glyph-name="eacute" unicode="&#xe9;" horiz-adv-x="1141" 
d="M993 35q-198 -60 -339 -60q-253 0 -398 170.5t-145 402.5q0 153 64 291t167.5 205t243.5 67q188 0 300 -135t112 -404l-1 -60h-685q16 -144 62 -222t122.5 -121.5t194.5 -43.5q60 0 119.5 10.5t182.5 55.5v-156zM321 660h479q0 163 -63.5 233t-162.5 70
q-113 0 -176.5 -75.5t-76.5 -227.5zM380 1283l222 296h222l-271 -296h-173z" />
    <glyph glyph-name="egrave" unicode="&#xe8;" horiz-adv-x="1141" 
d="M993 35q-198 -60 -339 -60q-253 0 -398 170.5t-145 402.5q0 153 64 291t167.5 205t243.5 67q188 0 300 -135t112 -404l-1 -60h-685q16 -144 62 -222t122.5 -121.5t194.5 -43.5q60 0 119.5 10.5t182.5 55.5v-156zM321 660h479q0 163 -63.5 233t-162.5 70
q-113 0 -176.5 -75.5t-76.5 -227.5zM590 1283l-271 296h222l222 -296h-173z" />
    <glyph glyph-name="ecircumflex" unicode="&#xea;" horiz-adv-x="1141" 
d="M993 35q-198 -60 -339 -60q-253 0 -398 170.5t-145 402.5q0 153 64 291t167.5 205t243.5 67q188 0 300 -135t112 -404l-1 -60h-685q16 -144 62 -222t122.5 -121.5t194.5 -43.5q60 0 119.5 10.5t182.5 55.5v-156zM321 660h479q0 163 -63.5 233t-162.5 70
q-113 0 -176.5 -75.5t-76.5 -227.5zM714 1579l222 -296h-173l-160 197l-160 -197h-173l222 296h222z" />
    <glyph glyph-name="edieresis" unicode="&#xeb;" horiz-adv-x="1141" 
d="M993 35q-198 -60 -339 -60q-253 0 -398 170.5t-145 402.5q0 153 64 291t167.5 205t243.5 67q188 0 300 -135t112 -404l-1 -60h-685q16 -144 62 -222t122.5 -121.5t194.5 -43.5q60 0 119.5 10.5t182.5 55.5v-156zM321 660h479q0 163 -63.5 233t-162.5 70
q-113 0 -176.5 -75.5t-76.5 -227.5zM306 1283v173h173v-173h-173zM701 1283v173h173v-173h-173z" />
    <glyph glyph-name="iacute" unicode="&#xed;" horiz-adv-x="592" 
d="M197 0v1086h197v-1086h-197zM123 1283l222 296h222l-271 -296h-173z" />
    <glyph glyph-name="igrave" unicode="&#xec;" horiz-adv-x="592" 
d="M197 0v1086h197v-1086h-197zM296 1283l-271 296h222l222 -296h-173z" />
    <glyph glyph-name="icircumflex" unicode="&#xee;" horiz-adv-x="592" 
d="M197 0v1086h197v-1086h-197zM407 1579l222 -296h-173l-160 197l-160 -197h-173l222 296h222z" />
    <glyph glyph-name="idieresis" unicode="&#xef;" horiz-adv-x="592" 
d="M197 0v1086h197v-1086h-197zM12 1283v173h173v-173h-173zM407 1283v173h173v-173h-173z" />
    <glyph glyph-name="ntilde" unicode="&#xf1;" horiz-adv-x="1271" 
d="M197 0v1086h197v-204q75 109 174.5 168.5t206.5 59.5q138 0 224 -87.5t86 -242.5v-780h-197v716q0 113 -20 149t-56 55.5t-77 19.5q-73 0 -157.5 -45t-183.5 -192v-703h-197zM333 1283q6 119 55.5 176.5t127.5 57.5q67 0 131 -26l47 -19l69 -31q23 -10 40 -10
q21 0 45.5 16t27.5 70h123q0 -83 -24 -130.5t-61.5 -75.5t-98.5 -28q-76 0 -136 28l-60 28q-35 16 -52 23t-38 7q-64 0 -73 -86h-123z" />
    <glyph glyph-name="oacute" unicode="&#xf3;" horiz-adv-x="1258" 
d="M629 -25q-155 0 -269.5 63.5t-181.5 200t-67 304.5q0 158 61 293.5t177.5 204.5t279.5 69q155 0 270 -63t181.5 -200t66.5 -304q0 -160 -62 -295.5t-177.5 -204t-278.5 -68.5zM629 123q147 0 228 109.5t81 310.5q0 202 -81.5 310.5t-227.5 108.5t-227 -108.5t-81 -310.5
q0 -201 81 -310.5t227 -109.5zM456 1283l222 296h222l-271 -296h-173z" />
    <glyph glyph-name="ograve" unicode="&#xf2;" horiz-adv-x="1258" 
d="M629 -25q-155 0 -269.5 63.5t-181.5 200t-67 304.5q0 158 61 293.5t177.5 204.5t279.5 69q155 0 270 -63t181.5 -200t66.5 -304q0 -160 -62 -295.5t-177.5 -204t-278.5 -68.5zM629 123q147 0 228 109.5t81 310.5q0 202 -81.5 310.5t-227.5 108.5t-227 -108.5t-81 -310.5
q0 -201 81 -310.5t227 -109.5zM629 1283l-271 296h222l222 -296h-173z" />
    <glyph glyph-name="ocircumflex" unicode="&#xf4;" horiz-adv-x="1258" 
d="M629 -25q-155 0 -269.5 63.5t-181.5 200t-67 304.5q0 158 61 293.5t177.5 204.5t279.5 69q155 0 270 -63t181.5 -200t66.5 -304q0 -160 -62 -295.5t-177.5 -204t-278.5 -68.5zM629 123q147 0 228 109.5t81 310.5q0 202 -81.5 310.5t-227.5 108.5t-227 -108.5t-81 -310.5
q0 -201 81 -310.5t227 -109.5zM740 1579l222 -296h-173l-160 197l-160 -197h-173l222 296h222z" />
    <glyph glyph-name="odieresis" unicode="&#xf6;" horiz-adv-x="1258" 
d="M629 -25q-155 0 -269.5 63.5t-181.5 200t-67 304.5q0 158 61 293.5t177.5 204.5t279.5 69q155 0 270 -63t181.5 -200t66.5 -304q0 -160 -62 -295.5t-177.5 -204t-278.5 -68.5zM629 123q147 0 228 109.5t81 310.5q0 202 -81.5 310.5t-227.5 108.5t-227 -108.5t-81 -310.5
q0 -201 81 -310.5t227 -109.5zM345 1283v173h173v-173h-173zM740 1283v173h173v-173h-173z" />
    <glyph glyph-name="otilde" unicode="&#xf5;" horiz-adv-x="1258" 
d="M629 -25q-155 0 -269.5 63.5t-181.5 200t-67 304.5q0 158 61 293.5t177.5 204.5t279.5 69q155 0 270 -63t181.5 -200t66.5 -304q0 -160 -62 -295.5t-177.5 -204t-278.5 -68.5zM629 123q147 0 228 109.5t81 310.5q0 202 -81.5 310.5t-227.5 108.5t-227 -108.5t-81 -310.5
q0 -201 81 -310.5t227 -109.5zM296 1283q6 119 55.5 176.5t127.5 57.5q67 0 131 -26l47 -19l69 -31q23 -10 40 -10q21 0 45.5 16t27.5 70h123q0 -83 -24 -130.5t-61.5 -75.5t-98.5 -28q-76 0 -136 28l-60 28q-35 16 -52 23t-38 7q-64 0 -73 -86h-123z" />
    <glyph glyph-name="uacute" unicode="&#xfa;" horiz-adv-x="1271" 
d="M876 0v204q-76 -110 -175 -169.5t-206 -59.5q-137 0 -223.5 87.5t-86.5 243.5v780h197v-716q0 -113 20 -149t56 -56t78 -20q72 0 156.5 45t183.5 192v704h197v-1086h-197zM456 1283l222 296h222l-271 -296h-173z" />
    <glyph glyph-name="ugrave" unicode="&#xf9;" horiz-adv-x="1271" 
d="M876 0v204q-76 -110 -175 -169.5t-206 -59.5q-137 0 -223.5 87.5t-86.5 243.5v780h197v-716q0 -113 20 -149t56 -56t78 -20q72 0 156.5 45t183.5 192v704h197v-1086h-197zM629 1283l-271 296h222l222 -296h-173z" />
    <glyph glyph-name="ucircumflex" unicode="&#xfb;" horiz-adv-x="1271" 
d="M876 0v204q-76 -110 -175 -169.5t-206 -59.5q-137 0 -223.5 87.5t-86.5 243.5v780h197v-716q0 -113 20 -149t56 -56t78 -20q72 0 156.5 45t183.5 192v704h197v-1086h-197zM740 1579l222 -296h-173l-160 197l-160 -197h-173l222 296h222z" />
    <glyph glyph-name="udieresis" unicode="&#xfc;" horiz-adv-x="1271" 
d="M876 0v204q-76 -110 -175 -169.5t-206 -59.5q-137 0 -223.5 87.5t-86.5 243.5v780h197v-716q0 -113 20 -149t56 -56t78 -20q72 0 156.5 45t183.5 192v704h197v-1086h-197zM345 1283v173h173v-173h-173zM740 1283v173h173v-173h-173z" />
    <glyph glyph-name="dagger" unicode="&#x2020;" 
d="M549 -296l24 1135l-345 -25v148l345 -24l-24 542h197l-25 -542l346 24v-148l-346 25l25 -1135h-197z" />
    <glyph glyph-name="degree" unicode="&#xb0;" horiz-adv-x="567" 
d="M284 1172q-73 0 -123 52.5t-50 120.5q0 67 49.5 119.5t123.5 52.5q73 0 122.5 -52.5t49.5 -119.5q0 -68 -49.5 -120.5t-122.5 -52.5zM284 1258q30 0 58 24.5t28 62.5t-28.5 62t-57.5 24q-30 0 -58.5 -24t-28.5 -62t28 -62.5t59 -24.5z" />
    <glyph glyph-name="cent" unicode="&#xa2;" 
d="M663 0v173q-98 9 -144 31.5t-93 57.5q-109 82 -165 207t-56 269q0 108 31.5 207t88.5 172q51 66 121 109q41 25 84.5 41t132.5 28v185h99v-185q133 -6 284 -46v-166q-177 60 -284 70v-840q46 0 127 16t157 52v-150q-81 -31 -161 -44.5t-123 -13.5v-173h-99zM663 324v820
q-74 -7 -131 -59t-84 -140t-27 -213q0 -170 59 -269t183 -139z" />
    <glyph glyph-name="sterling" unicode="&#xa3;" 
d="M247 0v173q81 26 124.5 70t64.5 98.5t21 147.5v227h-179v148h179v215q0 164 48 251t134.5 137t210.5 50q104 0 227 -30v-167q-124 49 -239 49q-54 0 -95.5 -20t-65 -63t-23.5 -147v-275h216v-148h-216v-127q0 -174 -42 -258t-131 -158h611v-173h-845z" />
    <glyph glyph-name="section" unicode="&#xa7;" 
d="M221 -260v180q102 -44 167.5 -64.5t125.5 -30.5t118 -10q121 0 205.5 49t84.5 131q0 42 -19.5 73.5t-48.5 53.5t-162 80l-177 75q-289 124 -289 336q0 49 15.5 99t42 93.5t88.5 106.5q-60 40 -86 73.5t-40.5 77t-14.5 89.5q0 145 117 255t353 110q150 0 345 -47v-160
q-202 59 -348 59q-128 0 -208 -52t-80 -133q0 -55 33 -95t142 -83l136 -55q232 -93 299 -173q67 -81 67 -193q0 -61 -22.5 -126.5t-126.5 -181.5q64 -37 95 -75t50 -90t19 -103q0 -129 -115 -236t-376 -107q-86 0 -159 12t-231 62zM840 341q74 99 74 194q0 64 -40.5 111.5
t-179.5 106.5l-222 93q-74 -90 -74 -185q0 -67 52.5 -122.5t176.5 -107.5z" />
    <glyph glyph-name="bullet" unicode="&#x2022;" 
d="M648 438q-61 0 -104.5 43.5t-43.5 104.5t44 104.5t104 43.5t104 -43.5t44 -104.5t-43.5 -104.5t-104.5 -43.5z" />
    <glyph glyph-name="paragraph" unicode="&#xb6;" 
d="M635 -296v1036q-193 13 -306 122.5t-113 291.5q0 96 36 171t112.5 115t270.5 40h395v-1776h-123v1653h-148v-1653h-124z" />
    <glyph glyph-name="germandbls" unicode="&#xdf;" horiz-adv-x="1225" 
d="M197 0v1151q0 192 35 272t114 130.5t218 50.5q183 0 273.5 -80t90.5 -184q0 -54 -18 -111.5t-113 -183.5q-40 -52 -58.5 -82.5t-18.5 -58.5q0 -29 12.5 -55.5t97.5 -99.5l161 -136q173 -146 173 -315q0 -126 -83.5 -224.5t-264.5 -98.5q-141 0 -282 58v169
q183 -79 282 -79q75 0 118.5 44.5t43.5 113.5q0 46 -19 82t-96 102l-191 164q-125 108 -125 219q0 38 13 81t87 157q53 81 68 129.5t15 89.5q0 70 -46 110.5t-124 40.5q-83 0 -124.5 -55.5t-41.5 -166.5v-1234h-197z" />
    <glyph glyph-name="registered" unicode="&#xae;" 
d="M648 629q-118 0 -219.5 57.5t-163 161.5t-61.5 225q0 119 59.5 222.5t162 162.5t222.5 59t223 -59t162 -162.5t59 -222.5q0 -121 -61.5 -225t-163 -161.5t-219.5 -57.5zM648 728q85 0 166.5 43.5t130.5 126t49 175.5q0 91 -46.5 172t-129 127.5t-170.5 46.5t-170.5 -46.5
t-128.5 -127.5t-46 -172q0 -93 48.5 -175.5t130 -126t166.5 -43.5zM469 802v530h154q89 0 125 -14.5t57.5 -44t21.5 -79.5q0 -48 -27 -87t-82 -68l124 -237h-113l-113 216h-48v-216h-99zM568 1092h43q52 0 78.5 26t26.5 67q0 34 -20.5 54t-80.5 20h-47v-167z" />
    <glyph glyph-name="copyright" unicode="&#xa9;" horiz-adv-x="1752" 
d="M876 -37q-201 0 -379.5 99t-288 281t-109.5 397q0 211 105 390.5t285 283t387 103.5t387.5 -103.5t285 -283t104.5 -390.5q0 -215 -109.5 -397t-288 -281t-379.5 -99zM876 74q191 0 338 88t237.5 251t90.5 327q0 162 -88 324t-236.5 252t-341.5 90q-192 0 -340.5 -90
t-237 -252t-88.5 -324q0 -167 93 -331.5t238.5 -249.5t334.5 -85zM1160 345q-141 -49 -255 -49q-120 0 -222 56t-155 158t-53 225q0 173 106.5 308t326.5 135q93 0 226 -26l26 -5v-123q-136 56 -244 56q-80 0 -150.5 -41t-106.5 -122t-36 -178q0 -152 83.5 -242t227.5 -90
q113 0 226 62v-124z" />
    <glyph glyph-name="trademark" unicode="&#x2122;" horiz-adv-x="1653" 
d="M247 740v617h-247v123h666v-123h-247v-617h-172zM790 740v740h233l156 -427l150 427h213v-740h-173v537l-163 -475h-118l-163 432v-494h-135z" />
    <glyph glyph-name="acute" unicode="&#xb4;" horiz-adv-x="1258" 
d="M456 1283l222 296h222l-271 -296h-173z" />
    <glyph glyph-name="dieresis" unicode="&#xa8;" horiz-adv-x="1258" 
d="M345 1283v173h173v-173h-173zM740 1283v173h173v-173h-173z" />
    <glyph glyph-name="notequal" unicode="&#x2260;" 
d="M105 345v148h409l112 198h-521v148h605l114 197h168l-112 -197h311v-148h-395l-112 -198h507v-148h-590l-109 -197h-174l112 197h-325z" />
    <glyph glyph-name="AE" unicode="&#xc6;" horiz-adv-x="1857" 
d="M18 0l861 1480h883v-157h-618v-475h518v-155h-518v-536h664v-157h-874v414h-483l-241 -414h-192zM540 569h394v671z" />
    <glyph glyph-name="Oslash" unicode="&#xd8;" horiz-adv-x="1591" 
d="M104 -37l173 226q-72 92 -104 169.5t-50.5 177.5t-18.5 203q0 329 178 554t529 225q74 0 138.5 -11t122 -33t134.5 -70l88 113h194l-173 -225q70 -84 102.5 -159t51.5 -176.5t19 -207.5q0 -349 -184 -567.5t-516 -218.5q-70 0 -133 10.5t-123 32.5t-146 70l-88 -113h-194
zM406 362l689 894q-129 104 -299 104q-224 0 -346.5 -167t-122.5 -445q0 -217 79 -386zM498 225q49 -43 92.5 -62.5t98.5 -31t111 -11.5q216 0 340.5 164.5t124.5 455.5q0 72 -8 141t-21.5 119t-48.5 120z" />
    <glyph glyph-name="infinity" unicode="&#x221e;" horiz-adv-x="1727" 
d="M852 479q-111 -196 -197 -251t-184 -55q-141 0 -246 115t-105 283q0 117 50 222.5t130.5 162t179.5 56.5q108 0 196.5 -68.5t203.5 -246.5q121 215 215 265t166 50q86 0 170 -53.5t130.5 -143t46.5 -206.5q0 -181 -103.5 -308.5t-260.5 -127.5q-90 0 -163.5 44
t-184.5 199zM772 595q-58 91 -145.5 176.5t-167.5 85.5q-78 0 -134.5 -75t-56.5 -207q0 -128 64 -191t149 -63q141 0 291 274zM955 593q14 -18 17 -23l73 -102q36 -50 98.5 -99t124.5 -49q76 0 134 82.5t58 195.5q0 76 -25.5 137.5t-79 95t-104.5 33.5q-49 0 -100 -31.5
t-90 -81t-106 -158.5z" />
    <glyph glyph-name="plusminus" unicode="&#xb1;" 
d="M105 0v148h1086v-148h-1086zM574 296v370h-469v148h469v370h148v-370h469v-148h-469v-370h-148z" />
    <glyph glyph-name="lessequal" unicode="&#x2264;" 
d="M1191 0h-1086v148h1086v-148zM1191 1283v-165l-755 -378l755 -377v-166l-1086 543z" />
    <glyph glyph-name="greaterequal" unicode="&#x2265;" 
d="M1191 0h-1086v148h1086v-148zM105 197v166l754 377l-754 378v165l1086 -543z" />
    <glyph glyph-name="yen" unicode="&#xa5;" 
d="M543 0v345h-296v148h296v99h-296v148h296l-463 740h233l360 -575l388 575h179l-500 -740h296v-148h-296v-99h296v-148h-296v-345h-197z" />
    <glyph glyph-name="mu" unicode="&#xb5;" horiz-adv-x="1283" 
d="M197 -395v1481h197v-716q0 -123 55 -166.5t127 -43.5q83 0 161 55.5t151 166.5v704h197v-1086h-197v204q-70 -114 -149 -171.5t-167 -57.5q-51 0 -95.5 12.5t-82.5 37.5v-420h-197z" />
    <glyph glyph-name="partialdiff" unicode="&#x2202;" 
d="M247 1298q52 107 115 170t139 99.5t160 36.5q131 0 236.5 -82t153.5 -246.5t48 -365.5q0 -270 -75.5 -480.5t-217 -332.5t-302.5 -122q-146 0 -223.5 101t-77.5 247q0 168 85 338.5t213 264.5t252 94q44 0 85 -13t108 -56v30q0 200 -102.5 327t-242.5 127
q-59 0 -119.5 -15t-117.5 -43t-117 -79zM946 774q-49 52 -100 77.5t-104 25.5q-85 0 -165.5 -66.5t-134 -184.5t-53.5 -230q0 -115 47.5 -192t132.5 -77q122 0 236 176t141 471z" />
    <glyph glyph-name="summation" unicode="&#x2211;" horiz-adv-x="1314" 
d="M50 0v187l620 529l-569 607v157h1133v-157h-846l547 -584l-647 -552h996v-187h-1234z" />
    <glyph glyph-name="product" unicode="&#x220f;" horiz-adv-x="1554" 
d="M216 0v1323h-99v157h1321v-157h-99v-1323h-209v1323h-705v-1323h-209z" />
    <glyph glyph-name="pi" unicode="&#x3c0;" horiz-adv-x="1664" 
d="M408 0v913h-40q-42 0 -121.5 -16.5t-183.5 -98.5v215q67 42 135 57.5t182 15.5h1194v-173h-290v-618q0 -177 100 -295h-219q-31 43 -45 81.5t-23.5 105.5t-9.5 111v615h-481v-913h-198z" />
    <glyph glyph-name="integral" unicode="&#x222b;" 
d="M850 1396l-12 1q-47 0 -74 -70.5t-27 -294.5l9 -383v-85q0 -509 -81 -684.5t-241 -175.5q-81 0 -118.5 44t-37.5 81q0 25 13 48t35 38.5t48 15.5q45 0 66.5 -29t21.5 -54q0 -7 -4 -23l14 -2q35 0 66.5 55.5t31.5 279.5l-3 118l-8 296v85q0 212 17.5 401.5t90 324
t218.5 134.5q77 0 115 -42t38 -83q0 -30 -25 -67.5t-74 -37.5q-41 0 -62.5 27.5t-21.5 56.5q0 7 5 25z" />
    <glyph glyph-name="ordfeminine" unicode="&#xaa;" horiz-adv-x="864" 
d="M568 822q-51 -53 -114 -79.5t-139 -26.5q-112 0 -177.5 65t-65.5 154q0 77 46.5 145t145 101.5t236.5 33.5h58v37q0 73 -45 107.5t-118 34.5q-132 0 -276 -83v147q147 59 308 59q110 0 171 -25t97 -74t36 -160v-286q0 -53 7.5 -70t27 -27.5t42.5 -10.5q5 0 16 1v-117
q-64 -20 -108 -20q-104 0 -148 94zM558 935v157h-49q-132 0 -198 -40.5t-66 -109.5q0 -49 32 -76.5t76 -27.5q42 0 100.5 23.5t104.5 73.5z" />
    <glyph glyph-name="ordmasculine" unicode="&#xba;" horiz-adv-x="864" 
d="M432 716q-193 0 -281.5 121t-88.5 279q0 159 88.5 280t281.5 121t281.5 -121t88.5 -279q0 -159 -88.5 -280t-281.5 -121zM432 839q78 0 131.5 66t53.5 212q0 144 -53 210.5t-132 66.5q-78 0 -131.5 -66.5t-53.5 -210.5q0 -146 54 -212t131 -66z" />
    <glyph glyph-name="Omega" unicode="&#x2126;" horiz-adv-x="1604" 
d="M665 157v-157h-601v157h410q-168 185 -236 293t-94.5 200t-26.5 197q0 179 86 336t235 245.5t364 88.5t363.5 -88.5t235 -245.5t86.5 -336q0 -105 -26.5 -196.5t-95 -200t-235.5 -293.5h410v-157h-602v157q142 156 203 258.5t92 209t31 216.5q0 213 -117 366t-345 153
t-345 -153t-117 -366q0 -111 28 -210.5t91 -207.5t206 -266z" />
    <glyph glyph-name="ae" unicode="&#xe6;" horiz-adv-x="1743" 
d="M809 193q-95 -109 -193 -163.5t-200 -54.5q-115 0 -214 76t-99 222q0 160 138 264.5t441 104.5h46v131q0 78 -21 113.5t-65.5 55.5t-110.5 20q-153 0 -334 -96v163q199 81 376 81q96 0 172 -30t132 -91q49 49 91.5 72.5t97.5 36t114 12.5q146 0 243 -75t136 -200t39 -323
h-672q10 -142 51.5 -217.5t117.5 -123.5t196 -48q60 0 124 10.5t183 60.5v-157q-193 -62 -359 -62q-135 0 -247 56t-183 162zM728 245v281l-63 2q-155 0 -260 -60t-105 -163q0 -71 51.5 -120t120.5 -49q62 0 126 27.5t130 81.5zM932 648h456q0 180 -63 247.5t-151 67.5
q-104 0 -167 -79.5t-75 -235.5z" />
    <glyph glyph-name="oslash" unicode="&#xf8;" horiz-adv-x="1258" 
d="M111 -25l127 169q-127 171 -127 398q0 158 61 294t177.5 205t278.5 69q152 0 282 -70l52 70h185l-127 -169q127 -170 127 -398q0 -158 -61 -293.5t-177 -205t-278 -69.5q-152 0 -282 71l-53 -71h-185zM361 309l444 594q-78 59 -172 59q-147 0 -229.5 -108t-82.5 -308
q0 -122 40 -237zM897 777l-444 -594q79 -60 172 -60q148 0 230.5 108.5t82.5 308.5q0 121 -41 237z" />
    <glyph glyph-name="questiondown" unicode="&#xbf;" horiz-adv-x="864" 
d="M614 1086v-198h-198v198h198zM614 691v-55q0 -110 -29 -183t-118 -176l-64 -72q-98 -112 -127 -173t-29 -123q0 -85 67.5 -139t189.5 -54q149 0 323 75v-167q-186 -56 -348 -56q-200 0 -321 91t-121 247q0 53 14.5 100t40.5 87t112 121l61 59q73 69 100 109t39 83.5
t12 114.5v111h198z" />
    <glyph glyph-name="exclamdown" unicode="&#xa1;" horiz-adv-x="648" 
d="M422 1086v-198h-197v198h197zM398 691l24 -790v-296h-197v296l25 790h148z" />
    <glyph glyph-name="logicalnot" unicode="&#xac;" 
d="M105 691v148h1086v-494h-148v346h-938z" />
    <glyph glyph-name="radical" unicode="&#x221a;" horiz-adv-x="1456" 
d="M181 326l-65 106l268 157l386 -649l579 1676h158l-666 -1912h-104l-419 702z" />
    <glyph glyph-name="florin" unicode="&#x192;" 
d="M237 -296l201 1012h-166v148h196l21 106q109 547 496 547q109 0 228 -29l-30 -156q-106 38 -199 38q-109 0 -175.5 -69t-100.5 -241l-39 -196h189v-148h-218l-202 -1012h-201z" />
    <glyph glyph-name="approxequal" unicode="&#x2248;" 
d="M105 654q0 143 78 235.5t198 92.5q52 0 101.5 -18.5t113.5 -51.5l107 -57l128 -69q49 -21 91 -21q47 0 84 45.5t37 132.5v7h148q-12 -185 -88 -259t-178 -74q-55 0 -100 14.5t-145 65.5l-112 58l-119 62q-40 17 -71 17q-44 0 -84.5 -42t-40.5 -138h-148zM105 234
q0 143 78 236t198 93q52 0 101 -18.5t114 -52.5l107 -56l128 -69q49 -22 91 -22q47 0 84 46t37 133v6h148q-12 -184 -87.5 -258.5t-178.5 -74.5q-55 0 -100 14.5t-145 66.5l-112 57l-119 62q-40 18 -71 18q-43 0 -84 -42t-41 -139h-148z" />
    <glyph glyph-name="Delta" unicode="&#x2206;" horiz-adv-x="1357" 
d="M11 0v187l565 1293h208l562 -1293v-187h-1335zM192 187h927l-462 1061z" />
    <glyph glyph-name="guillemotleft" unicode="&#xab;" horiz-adv-x="1073" 
d="M999 913l-296 -370l296 -370l-98 -74l-395 444l395 444zM604 913l-296 -370l296 -370l-98 -74l-395 444l395 444z" />
    <glyph glyph-name="guillemotright" unicode="&#xbb;" horiz-adv-x="1073" 
d="M74 173l296 370l-296 370l99 74l394 -444l-394 -444zM469 173l296 370l-296 370l98 74l395 -444l-395 -444z" />
    <glyph glyph-name="ellipsis" unicode="&#x2026;" horiz-adv-x="2048" 
d="M247 0v197h197v-197h-197zM926 0v197h197v-197h-197zM1604 0v197h197v-197h-197z" />
    <glyph glyph-name="nonbreakingspace" unicode="&#xa0;" horiz-adv-x="648" 
 />
    <glyph glyph-name="Agrave" unicode="&#xc0;" horiz-adv-x="1413" 
d="M17 0l587 1480h208l578 -1480h-227l-161 410h-627l-163 -410h-195zM436 566h505l-252 638zM704 1604l-271 296h222l222 -296h-173z" />
    <glyph glyph-name="Atilde" unicode="&#xc3;" horiz-adv-x="1413" 
d="M17 0l587 1480h208l578 -1480h-227l-161 410h-627l-163 -410h-195zM436 566h505l-252 638zM370 1604q6 119 55.5 176.5t127.5 57.5q67 0 131 -26l47 -19l69 -31q23 -10 40 -10q21 0 45.5 16t27.5 70h123q0 -83 -24 -130.5t-61.5 -75.5t-98.5 -28q-76 0 -136 28l-60 28
q-35 16 -52 23t-38 7q-64 0 -73 -86h-123z" />
    <glyph glyph-name="Otilde" unicode="&#xd5;" horiz-adv-x="1591" 
d="M796 -37q-210 0 -365.5 94t-241 274.5t-85.5 408.5q0 220 81.5 400.5t240.5 278.5t370 98t370 -98t240.5 -278.5t81.5 -400.5q0 -219 -80.5 -398.5t-238 -279t-373.5 -99.5zM796 120q224 0 346.5 167t122.5 455q0 287 -123.5 452.5t-345.5 165.5t-345.5 -165.5
t-123.5 -452.5q0 -288 122.5 -455t346.5 -167zM463 1604q6 119 55.5 176.5t127.5 57.5q67 0 131 -26l47 -19l69 -31q23 -10 40 -10q21 0 45.5 16t27.5 70h123q0 -83 -24 -130.5t-61.5 -75.5t-98.5 -28q-76 0 -136 28l-60 28q-35 16 -52 23t-38 7q-64 0 -73 -86h-123z" />
    <glyph glyph-name="OE" unicode="&#x152;" horiz-adv-x="2048" 
d="M1129 58q-156 -95 -347 -95q-194 0 -354.5 97.5t-242 278.5t-81.5 401t81.5 400.5t241 278.5t366.5 98q61 0 116 -8.5t104 -26.5t116 -59v57h827v-157h-617v-475h517v-155l-517 6v-542h660v-157h-870v58zM1129 569v342q0 181 -36.5 267t-112 134t-187.5 48
q-219 0 -342.5 -166t-123.5 -454q0 -286 122.5 -453t346.5 -167q106 0 177 42t113.5 130t42.5 277z" />
    <glyph glyph-name="oe" unicode="&#x153;" horiz-adv-x="1901" 
d="M979 174q-75 -114 -160.5 -156.5t-198.5 -42.5q-148 0 -264 66t-180.5 202t-64.5 300q0 158 61.5 293.5t178 204.5t271.5 69q77 0 134.5 -18.5t110 -59t107.5 -122.5q51 84 101.5 122t119.5 58t144 20q144 0 241.5 -75t136.5 -200t39 -323h-673q11 -142 52.5 -217.5
t117.5 -123.5t195 -48q61 0 125 10.5t183 60.5v-157q-192 -62 -350 -62q-105 0 -217.5 33t-209.5 166zM624 123q76 0 133 41t91 125.5t34 270.5q0 208 -70 305t-188 97q-138 0 -220.5 -107.5t-82.5 -311.5t82 -312t221 -108zM1090 648h456q0 180 -63.5 247.5t-150.5 67.5
q-105 0 -167.5 -79.5t-74.5 -235.5z" />
    <glyph glyph-name="endash" unicode="&#x2013;" horiz-adv-x="1024" 
d="M105 543v123h814v-123h-814z" />
    <glyph glyph-name="emdash" unicode="&#x2014;" horiz-adv-x="2048" 
d="M99 543v99h1851v-99h-1851z" />
    <glyph glyph-name="quotedblleft" unicode="&#x201c;" horiz-adv-x="765" 
d="M654 1579v-74q-38 -20 -54.5 -64.5t-16.5 -159.5v-23h71v-197h-198v166q0 129 23 187.5t70.5 104.5t104.5 60zM308 1579v-74q-38 -20 -54 -64.5t-16 -159.5v-23h70v-197h-197v166q0 129 22.5 187.5t70.5 104.5t104 60z" />
    <glyph glyph-name="quotedblright" unicode="&#x201d;" horiz-adv-x="765" 
d="M111 1061v74q38 20 54.5 65t16.5 159v23h-71v197h197v-166q0 -128 -22 -187t-70 -105t-105 -60zM456 1061v74q39 20 55 64.5t16 159.5v23h-71v197h198v-166q0 -128 -22.5 -187t-70.5 -105t-105 -60z" />
    <glyph glyph-name="quoteleft" unicode="&#x2018;" horiz-adv-x="648" 
d="M447 1579v-74q-32 -9 -51.5 -34t-32 -63t-12.5 -129v-21h96v-246h-247v214q0 168 57.5 253.5t189.5 99.5z" />
    <glyph glyph-name="quoteright" unicode="&#x2019;" horiz-adv-x="648" 
d="M200 1012v74q32 9 51 33.5t32 63t13 129.5v20h-96v247h247v-214q0 -170 -58 -255t-189 -98z" />
    <glyph glyph-name="divide" unicode="&#xf7;" 
d="M537 74v222h222v-222h-222zM105 518v148h1086v-148h-1086zM537 888v222h222v-222h-222z" />
    <glyph glyph-name="lozenge" unicode="&#x25ca;" 
d="M648 0l-543 543l543 543l543 -543zM648 209l333 334l-333 333l-334 -333z" />
    <glyph glyph-name="ydieresis" unicode="&#xff;" horiz-adv-x="1070" 
d="M260 -395l176 395l-420 1086h213l311 -818l332 818h186l-593 -1481h-205zM265 1283v173h173v-173h-173zM660 1283v173h173v-173h-173z" />
    <glyph glyph-name="Ydieresis" unicode="&#x178;" horiz-adv-x="1276" 
d="M511 0v618l-494 862h240l384 -668l414 668h195l-529 -858v-622h-210zM349 1604v173h173v-173h-173zM744 1604v173h173v-173h-173z" />
    <glyph glyph-name="fraction" unicode="&#x2215;" horiz-adv-x="74" 
d="M-617 -36l1091 1553h192l-1091 -1554z" />
    <glyph glyph-name="Euro" unicode="&#x20ac;" horiz-adv-x="1296" 
d="M346 528l2 -6q43 -190 157.5 -292.5t282.5 -102.5q201 0 392 154v-181q-175 -137 -414 -137q-89 0 -166.5 16t-143.5 47.5t-120 78t-95.5 109t-79.5 161.5t-38 147v6h-139l32 150h90v6q-2 21 -2 59l2 54v6h-122l32 149h107l2 6q114 560 643 560q112 0 201 -21.5
t211 -69.5v-196q-133 65 -226 97t-186 32q-339 0 -422 -408h666l-33 -149h-651v-6l-2 -64l2 -49v-6h633l-31 -150h-584z" />
    <glyph glyph-name="guilsinglleft" unicode="&#x2039;" horiz-adv-x="679" 
d="M604 913l-296 -370l296 -370l-98 -74l-395 444l395 444z" />
    <glyph glyph-name="guilsinglright" unicode="&#x203a;" horiz-adv-x="679" 
d="M74 173l296 370l-296 370l99 74l394 -444l-394 -444z" />
    <glyph glyph-name="fi" unicode="&#xf001;" horiz-adv-x="1320" 
d="M234 0v938h-154v148h154v130q0 134 34.5 210.5t113 127t205.5 50.5q100 0 226 -33v-156q-133 41 -213 41q-46 0 -84 -14.5t-61 -51.5t-23 -153v-151h690v-1086h-197v938h-493v-938h-198zM925 1283v197h197v-197h-197z" />
    <glyph glyph-name="fl" unicode="&#xf002;" horiz-adv-x="1326" 
d="M240 0v938h-160v148h160v111q0 162 50 243t135 122.5t227 41.5q92 0 262 -25h215v-1579h-198v1411q-189 45 -290 45q-63 0 -111 -20.5t-70 -59.5t-22 -133v-157h271v-148h-271v-938h-198z" />
    <glyph glyph-name="daggerdbl" unicode="&#x2021;" 
d="M549 -296l24 543l-345 -25v148l345 -25v494l-345 -25v148l345 -24l-24 542h197l-25 -542l346 24v-148l-346 25v-494l346 25v-148l-346 25l25 -543h-197z" />
    <glyph glyph-name="periodcentered" unicode="&#x2219;" 
d="M524 469v247h247v-247h-247z" />
    <glyph glyph-name="quotesinglbase" unicode="&#x201a;" horiz-adv-x="648" 
d="M200 -296v74q48 14 72 67.5t24 134.5v20h-96v247h247v-214q0 -134 -54 -224.5t-193 -104.5z" />
    <glyph glyph-name="quotedblbase" unicode="&#x201e;" horiz-adv-x="765" 
d="M111 -321v74q38 20 54.5 64.5t16.5 159.5v23h-71v197h197v-166q0 -128 -22 -186.5t-70 -105t-105 -60.5zM456 -321v74q38 20 54.5 64.5t16.5 159.5v23h-71v197h198v-166q0 -128 -22.5 -186.5t-70.5 -105t-105 -60.5z" />
    <glyph glyph-name="perthousand" unicode="&#x2030;" horiz-adv-x="2073" 
d="M24 -37l1166 1554h154l-1165 -1554h-155zM327 740q-148 0 -231.5 102.5t-83.5 267.5q0 166 84 268t231 102q146 0 230 -102t84 -268q0 -165 -83.5 -267.5t-230.5 -102.5zM327 839q77 0 121.5 75t44.5 196q0 122 -45 197t-121 75q-77 0 -122 -75t-45 -197q0 -121 45 -196
t122 -75zM1042 0q-147 0 -230.5 102.5t-83.5 267.5q0 166 83.5 268t230.5 102t231 -102t84 -268q0 -165 -83.5 -267.5t-231.5 -102.5zM1042 99q77 0 122 75t45 196q0 122 -45.5 197t-121.5 75t-121 -75t-45 -197q0 -121 44.5 -196t121.5 -75zM1745 0q-147 0 -230.5 102.5
t-83.5 267.5q0 166 84 268t230 102q147 0 231 -102t84 -268q0 -165 -83.5 -267.5t-231.5 -102.5zM1745 99q77 0 122 75t45 196q0 122 -45 197t-122 75q-76 0 -121 -75t-45 -197q0 -121 44.5 -196t121.5 -75z" />
    <glyph glyph-name="Acircumflex" unicode="&#xc2;" horiz-adv-x="1413" 
d="M17 0l587 1480h208l578 -1480h-227l-161 410h-627l-163 -410h-195zM436 566h505l-252 638zM814 1900l222 -296h-173l-160 197l-160 -197h-173l222 296h222z" />
    <glyph glyph-name="Ecircumflex" unicode="&#xca;" horiz-adv-x="1110" 
d="M191 0v1480h827v-157h-617v-475h517v-155h-517v-536h660v-157h-870zM737 1900l222 -296h-173l-160 197l-160 -197h-173l222 296h222z" />
    <glyph glyph-name="Aacute" unicode="&#xc1;" horiz-adv-x="1413" 
d="M17 0l587 1480h208l578 -1480h-227l-161 410h-627l-163 -410h-195zM436 566h505l-252 638zM531 1604l222 296h222l-271 -296h-173z" />
    <glyph glyph-name="Edieresis" unicode="&#xcb;" horiz-adv-x="1110" 
d="M191 0v1480h827v-157h-617v-475h517v-155h-517v-536h660v-157h-870zM342 1604v173h173v-173h-173zM737 1604v173h173v-173h-173z" />
    <glyph glyph-name="Egrave" unicode="&#xc8;" horiz-adv-x="1110" 
d="M191 0v1480h827v-157h-617v-475h517v-155h-517v-536h660v-157h-870zM626 1604l-271 296h222l222 -296h-173z" />
    <glyph glyph-name="Iacute" unicode="&#xcd;" horiz-adv-x="590" 
d="M190 0v1480h210v-1480h-210zM122 1604l222 296h222l-271 -296h-173z" />
    <glyph glyph-name="Icircumflex" unicode="&#xce;" horiz-adv-x="590" 
d="M190 0v1480h210v-1480h-210zM406 1900l222 -296h-173l-160 197l-160 -197h-173l222 296h222z" />
    <glyph glyph-name="Idieresis" unicode="&#xcf;" horiz-adv-x="590" 
d="M190 0v1480h210v-1480h-210zM11 1604v173h173v-173h-173zM406 1604v173h173v-173h-173z" />
    <glyph glyph-name="Igrave" unicode="&#xcc;" horiz-adv-x="590" 
d="M189 0v1480h210v-1480h-210zM294 1604l-271 296h222l222 -296h-173z" />
    <glyph glyph-name="Oacute" unicode="&#xd3;" horiz-adv-x="1591" 
d="M796 -37q-210 0 -365.5 94t-241 274.5t-85.5 408.5q0 220 81.5 400.5t240.5 278.5t370 98t370 -98t240.5 -278.5t81.5 -400.5q0 -219 -80.5 -398.5t-238 -279t-373.5 -99.5zM796 120q224 0 346.5 167t122.5 455q0 287 -123.5 452.5t-345.5 165.5t-345.5 -165.5
t-123.5 -452.5q0 -288 122.5 -455t346.5 -167zM623 1604l222 296h222l-271 -296h-173z" />
    <glyph glyph-name="Ocircumflex" unicode="&#xd4;" horiz-adv-x="1591" 
d="M796 -37q-210 0 -365.5 94t-241 274.5t-85.5 408.5q0 220 81.5 400.5t240.5 278.5t370 98t370 -98t240.5 -278.5t81.5 -400.5q0 -219 -80.5 -398.5t-238 -279t-373.5 -99.5zM796 120q224 0 346.5 167t122.5 455q0 287 -123.5 452.5t-345.5 165.5t-345.5 -165.5
t-123.5 -452.5q0 -288 122.5 -455t346.5 -167zM907 1900l222 -296h-173l-160 197l-160 -197h-173l222 296h222z" />
    <glyph glyph-name="Ograve" unicode="&#xd2;" horiz-adv-x="1591" 
d="M796 -37q-210 0 -365.5 94t-241 274.5t-85.5 408.5q0 220 81.5 400.5t240.5 278.5t370 98t370 -98t240.5 -278.5t81.5 -400.5q0 -219 -80.5 -398.5t-238 -279t-373.5 -99.5zM796 120q224 0 346.5 167t122.5 455q0 287 -123.5 452.5t-345.5 165.5t-345.5 -165.5
t-123.5 -452.5q0 -288 122.5 -455t346.5 -167zM796 1604l-271 296h222l222 -296h-173z" />
    <glyph glyph-name="Uacute" unicode="&#xda;" horiz-adv-x="1419" 
d="M179 1480h210v-934q0 -244 91 -335t254 -91q103 0 174 35.5t110 115.5t39 268v941h184v-938q0 -241 -59.5 -347.5t-168 -169t-287.5 -62.5q-191 0 -309 65t-178 178t-60 342v932zM536 1604l222 296h222l-271 -296h-173z" />
    <glyph glyph-name="Ucircumflex" unicode="&#xdb;" horiz-adv-x="1419" 
d="M179 1480h210v-934q0 -244 91 -335t254 -91q103 0 174 35.5t110 115.5t39 268v941h184v-938q0 -241 -59.5 -347.5t-168 -169t-287.5 -62.5q-191 0 -309 65t-178 178t-60 342v932zM820 1900l222 -296h-173l-160 197l-160 -197h-173l222 296h222z" />
    <glyph glyph-name="Ugrave" unicode="&#xd9;" horiz-adv-x="1419" 
d="M179 1480h210v-934q0 -244 91 -335t254 -91q103 0 174 35.5t110 115.5t39 268v941h184v-938q0 -241 -59.5 -347.5t-168 -169t-287.5 -62.5q-191 0 -309 65t-178 178t-60 342v932zM709 1604l-271 296h222l222 -296h-173z" />
    <glyph glyph-name="dotlessi" unicode="&#x131;" horiz-adv-x="592" 
d="M197 0v1086h197v-1086h-197z" />
    <glyph glyph-name="circumflex" unicode="&#x2c6;" horiz-adv-x="1258" 
d="M740 1579l222 -296h-173l-160 197l-160 -197h-173l222 296h222z" />
    <glyph glyph-name="tilde" unicode="&#x2dc;" horiz-adv-x="1258" 
d="M296 1283q6 119 55.5 176.5t127.5 57.5q67 0 131 -26l47 -19l69 -31q23 -10 40 -10q21 0 45.5 16t27.5 70h123q0 -83 -24 -130.5t-61.5 -75.5t-98.5 -28q-76 0 -136 28l-60 28q-35 16 -52 23t-38 7q-64 0 -73 -86h-123z" />
    <glyph glyph-name="macron" unicode="&#x2c9;" horiz-adv-x="1258" 
d="M345 1283v148h568v-148h-568z" />
    <glyph glyph-name="breve" unicode="&#x2d8;" horiz-adv-x="1258" 
d="M296 1579h123q19 -89 81 -118.5t129 -29.5q68 0 129.5 30t80.5 118h123q-15 -135 -108.5 -215.5t-224.5 -80.5q-130 0 -223.5 80t-109.5 216z" />
    <glyph glyph-name="dotaccent" unicode="&#x2d9;" horiz-adv-x="1258" 
d="M530 1283v197h197v-197h-197z" />
    <glyph glyph-name="ring" unicode="&#x2da;" horiz-adv-x="1258" 
d="M629 1283q-66 0 -113 47t-47 113q0 67 47.5 114t112.5 47q66 0 113.5 -47t47.5 -114q0 -66 -47.5 -113t-113.5 -47zM629 1357q36 0 61 25.5t25 60.5q0 36 -25 61.5t-61 25.5t-61 -25.5t-25 -61.5q0 -35 25 -60.5t61 -25.5z" />
    <glyph glyph-name="cedilla" unicode="&#xb8;" horiz-adv-x="1258" 
d="M510 -373v79q40 -8 64 -8q49 0 75.5 19.5t26.5 49.5q0 75 -124 93l87 140l91 1l-68 -108q157 -38 157 -146q0 -60 -53.5 -99.5t-133.5 -39.5q-50 0 -122 19z" />
    <glyph glyph-name="hungarumlaut" unicode="&#x2dd;" horiz-adv-x="1258" 
d="M368 1283l221 296h146l-248 -296h-119zM659 1283l222 296h146l-249 -296h-119z" />
    <glyph glyph-name="ogonek" unicode="&#x2db;" horiz-adv-x="1258" 
d="M836 -279q-69 -17 -130 -17q-85 0 -145.5 31.5t-60.5 95.5q0 95 144 169h120q-29 -17 -73.5 -60.5t-44.5 -82.5q0 -27 23.5 -48.5t79.5 -21.5q35 0 87 11v-77z" />
    <glyph glyph-name="caron" unicode="&#x2c7;" horiz-adv-x="1258" 
d="M518 1283l-222 296h173l160 -197l160 197h173l-222 -296h-222z" />
    <glyph glyph-name="Scaron" unicode="&#x160;" horiz-adv-x="1103" 
d="M100 28v208q178 -82 260 -99t152 -17q127 0 200.5 69.5t73.5 166.5q0 73 -38 135q-39 61 -194 149l-102 59q-204 116 -274 212t-70 213q0 105 55.5 197t149 144t235.5 52q171 0 361 -57v-192q-165 65 -226.5 78.5t-122.5 13.5q-128 0 -189.5 -67t-61.5 -137
q0 -48 29 -97.5t78 -85t135 -84.5l106 -60q206 -117 275 -214q69 -98 69 -225q0 -173 -131.5 -300t-387.5 -127q-79 0 -153 10.5t-229 54.5zM464 1604l-222 296h173l160 -197l160 197h173l-222 -296h-222z" />
    <glyph glyph-name="scaron" unicode="&#x161;" horiz-adv-x="1044" 
d="M157 38v181q193 -96 336 -96q84 0 140.5 46t56.5 115q0 43 -28 84t-129 83l-115 49q-133 55 -194 128q-61 72 -61 177q0 131 95 218t281 87q91 0 225 -25l41 -8v-164q-165 49 -263 49q-95 0 -142 -41t-47 -97q0 -44 32 -79q31 -36 112 -71l95 -40q191 -81 243 -160
t52 -172q0 -89 -48.5 -165t-143 -119t-210.5 -43q-135 0 -328 63zM411 1283l-222 296h173l160 -197l160 197h173l-222 -296h-222z" />
    <glyph glyph-name="brokenbar" unicode="&#xa6;" horiz-adv-x="543" 
d="M197 -296v740h148v-740h-148zM197 839v740h148v-740h-148z" />
    <glyph glyph-name="Eth" unicode="&#xd0;" horiz-adv-x="1534" 
d="M191 0v679h-222v157h222v644h492q285 0 432 -82.5t231 -241t84 -381.5q0 -211 -77 -387t-233 -282t-434 -106h-495zM401 157h269q210 0 314.5 66.5t163.5 210.5t59 321q0 156 -51 284.5t-165 206t-417 77.5h-173v-487h333v-157h-333v-522z" />
    <glyph glyph-name="eth" unicode="&#xf0;" horiz-adv-x="1234" 
d="M742 1067q-38 62 -75.5 104t-112.5 103l-242 -162l-81 121l188 129q-136 69 -309 69v148q273 0 467 -112l169 114l85 -123l-124 -81q192 -144 303.5 -354.5t111.5 -445.5q0 -268 -139.5 -435t-366.5 -167q-147 0 -266.5 70.5t-180 204t-60.5 288.5q0 154 61.5 283.5
t179.5 198t255 68.5q62 0 137 -21zM620 123q128 0 215.5 105.5t87.5 317.5t-82.5 304.5t-215.5 92.5q-150 0 -228 -111.5t-78 -294.5q0 -127 39 -226.5t109.5 -143.5t152.5 -44z" />
    <glyph glyph-name="Yacute" unicode="&#xdd;" horiz-adv-x="1276" 
d="M511 0v618l-494 862h240l384 -668l414 668h195l-529 -858v-622h-210zM461 1604l222 296h222l-271 -296h-173z" />
    <glyph glyph-name="yacute" unicode="&#xfd;" horiz-adv-x="1070" 
d="M260 -395l176 395l-420 1086h213l311 -818l332 818h186l-593 -1481h-205zM364 1283l222 296h222l-271 -296h-173z" />
    <glyph glyph-name="Thorn" unicode="&#xde;" horiz-adv-x="1132" 
d="M191 0v1480h208v-293h195q213 0 306.5 -42t144.5 -128.5t51 -217.5q0 -154 -66.5 -267.5t-213 -175t-324.5 -61.5h-93v-295h-208zM399 449h109q197 0 282 97t85 237q0 76 -29 129t-93.5 85t-224.5 32h-129v-580z" />
    <glyph glyph-name="thorn" unicode="&#xfe;" horiz-adv-x="1289" 
d="M197 -395v1777h197v-500q61 114 151.5 171t211.5 57q201 0 311 -148t110 -386q0 -257 -124.5 -429t-339.5 -172q-63 0 -120 15t-101.5 43t-98.5 90v-518h-197zM394 259q101 -90 161 -113t129 -23q145 0 214.5 122t69.5 311q0 176 -61.5 279t-190.5 103
q-82 0 -162.5 -44.5t-159.5 -134.5v-500z" />
    <glyph glyph-name="multiply" unicode="&#xd7;" 
d="M105 159l437 433l-437 428l103 115l440 -440l439 440l104 -107l-438 -436l438 -438l-102 -105l-441 436l-439 -436z" />
    <glyph glyph-name="onesuperior" unicode="&#xb9;" horiz-adv-x="864" 
d="M346 740v629h-136v111l308 25v-765h-172z" />
    <glyph glyph-name="twosuperior" unicode="&#xb2;" horiz-adv-x="864" 
d="M136 740v136q35 63 73.5 98.5t113.5 85.5l120 79q68 46 90.5 79.5t22.5 71.5q0 55 -42.5 82.5t-128.5 27.5q-116 0 -249 -64v134q150 48 284 48q152 0 236.5 -60t84.5 -154q0 -75 -47 -137.5t-199 -143.5l-64 -34q-96 -51 -132 -113h454v-136h-617z" />
    <glyph glyph-name="threesuperior" unicode="&#xb3;" horiz-adv-x="864" 
d="M154 755v142q155 -58 255 -58q68 0 110 30t42 76q0 55 -56.5 91.5t-191.5 36.5h-49v124h53q122 0 183 29t61 86q0 42 -37 62t-92 20q-123 0 -278 -58v136q153 46 292 46q148 0 221 -53t73 -131q0 -71 -59 -121t-177 -79q129 -16 185.5 -73t56.5 -128q0 -82 -78 -150
t-228 -68q-142 0 -286 40z" />
    <glyph glyph-name="onehalf" unicode="&#xbd;" horiz-adv-x="1641" 
d="M222 740v629h-136v111l309 25v-765h-173zM925 0v136q35 63 72.5 97.5t114.5 85.5l120 80q68 45 91 79q22 33 22 72q0 55 -42.5 82.5t-127.5 27.5q-118 0 -250 -64v133q149 48 286 48q151 0 235 -60t84 -154q0 -74 -46 -136t-200 -144l-64 -34q-95 -51 -131 -113h453v-136
h-617zM37 -37l1098 1554h179l-1085 -1554h-192z" />
    <glyph glyph-name="onequarter" unicode="&#xbc;" horiz-adv-x="1641" 
d="M235 740v629h-136v111l308 25v-765h-172zM1222 0v197h-370v155l351 401h191v-432h124v-124h-124v-197h-172zM989 321h233v266zM99 -36l1091 1553h192l-1091 -1554z" />
    <glyph glyph-name="threequarters" unicode="&#xbe;" horiz-adv-x="1789" 
d="M123 755v142q155 -58 255 -58q68 0 110 30t42 76q0 55 -56.5 91.5t-191.5 36.5h-49v124h53q122 0 183 29t61 86q0 42 -37 62t-92 20q-123 0 -278 -58v136q153 46 292 46q148 0 221 -53t73 -131q0 -71 -59 -121t-177 -79q129 -16 185.5 -73t56.5 -128q0 -82 -78 -150
t-228 -68q-142 0 -286 40zM1369 0v197h-370v155l352 401h191v-432h123v-124h-123v-197h-173zM1136 321h233v266zM283 -36l1092 1553h191l-1091 -1554z" />
    <glyph glyph-name="sfthyphen" unicode="&#xad;" horiz-adv-x="666" 
d="M111 543v148h444v-148h-444z" />
    <glyph glyph-name="currency" unicode="&#xa4;" horiz-adv-x="1296" 
d="M380 386l-195 -195l-87 87l195 195q-90 119 -90 267t90 267l-195 196l87 87l195 -195q63 45 129.5 67t137.5 22t138 -22t129 -67l195 195l88 -87l-195 -196q89 -119 89 -267t-89 -267l195 -195l-88 -87l-195 195q-62 -45 -129 -67.5t-138 -22.5t-137.5 22.5t-129.5 67.5z
M647 444q84 0 150.5 38.5t106 109t39.5 148.5q0 77 -38.5 147t-106 109.5t-151.5 39.5t-151.5 -39.5t-106 -109.5t-38.5 -147q0 -78 39.5 -148.5t106 -109t150.5 -38.5z" />
  </font>
</defs>
</svg>
